<svg width="28" height="28" viewBox="0 0 28 28" fill="none" xmlns="http://www.w3.org/2000/svg">
<g id="Frame" clip-path="url(#clip0_2_682)">
<g id="Vector" filter="url(#filter0_d_2_682)">
<path d="M24.5 8.4H3.49999C3.31434 8.4 3.13629 8.32625 3.00501 8.19497C2.87374 8.0637 2.79999 7.88565 2.79999 7.7C2.79999 7.51435 2.87374 7.3363 3.00501 7.20503C3.13629 7.07375 3.31434 7 3.49999 7H24.5C24.6856 7 24.8637 7.07375 24.995 7.20503C25.1262 7.3363 25.2 7.51435 25.2 7.7C25.2 7.88565 25.1262 8.0637 24.995 8.19497C24.8637 8.32625 24.6856 8.4 24.5 8.4ZM24.5 15.4H3.49999C3.31434 15.4 3.13629 15.3263 3.00501 15.195C2.87374 15.0637 2.79999 14.8857 2.79999 14.7C2.79999 14.5143 2.87374 14.3363 3.00501 14.205C3.13629 14.0737 3.31434 14 3.49999 14H24.5C24.6856 14 24.8637 14.0737 24.995 14.205C25.1262 14.3363 25.2 14.5143 25.2 14.7C25.2 14.8857 25.1262 15.0637 24.995 15.195C24.8637 15.3263 24.6856 15.4 24.5 15.4ZM24.5 22.4H3.49999C3.31434 22.4 3.13629 22.3263 3.00501 22.195C2.87374 22.0637 2.79999 21.8857 2.79999 21.7C2.79999 21.5143 2.87374 21.3363 3.00501 21.205C3.13629 21.0737 3.31434 21 3.49999 21H24.5C24.6856 21 24.8637 21.0737 24.995 21.205C25.1262 21.3363 25.2 21.5143 25.2 21.7C25.2 21.8857 25.1262 22.0637 24.995 22.195C24.8637 22.3263 24.6856 22.4 24.5 22.4Z" fill="white"/>
<path d="M24.5 7.9H3.49999C3.44694 7.9 3.39607 7.87893 3.35857 7.84142L3.00501 8.19497L3.35857 7.84142C3.32106 7.80391 3.29999 7.75304 3.29999 7.7C3.29999 7.64696 3.32106 7.59609 3.35857 7.55858C3.39607 7.52107 3.44694 7.5 3.49999 7.5H24.5C24.553 7.5 24.6039 7.52107 24.6414 7.55858C24.6789 7.59609 24.7 7.64696 24.7 7.7C24.7 7.75304 24.6789 7.80391 24.6414 7.84142C24.6039 7.87893 24.553 7.9 24.5 7.9ZM24.5 14.9H3.49999C3.44694 14.9 3.39607 14.8789 3.35857 14.8414L3.00501 15.195L3.35857 14.8414C3.32106 14.8039 3.29999 14.753 3.29999 14.7C3.29999 14.647 3.32106 14.5961 3.35857 14.5586C3.39607 14.5211 3.44694 14.5 3.49999 14.5H24.5C24.553 14.5 24.6039 14.5211 24.6414 14.5586C24.6789 14.5961 24.7 14.647 24.7 14.7C24.7 14.753 24.6789 14.8039 24.6414 14.8414C24.6039 14.8789 24.553 14.9 24.5 14.9ZM24.5 21.9H3.49999C3.44694 21.9 3.39607 21.8789 3.35857 21.8414C3.32106 21.8039 3.29999 21.753 3.29999 21.7C3.29999 21.647 3.32106 21.5961 3.35857 21.5586C3.39607 21.5211 3.44694 21.5 3.49999 21.5H24.5C24.553 21.5 24.6039 21.5211 24.6414 21.5586C24.6789 21.5961 24.7 21.647 24.7 21.7C24.7 21.753 24.6789 21.8039 24.6414 21.8414C24.6039 21.8789 24.553 21.9 24.5 21.9Z" stroke="white"/>
</g>
</g>
<defs>
<filter id="filter0_d_2_682" x="-1.20001" y="7" width="30.4" height="23.4" filterUnits="userSpaceOnUse" color-interpolation-filters="sRGB">
<feFlood flood-opacity="0" result="BackgroundImageFix"/>
<feColorMatrix in="SourceAlpha" type="matrix" values="0 0 0 0 0 0 0 0 0 0 0 0 0 0 0 0 0 0 127 0" result="hardAlpha"/>
<feOffset dy="4"/>
<feGaussianBlur stdDeviation="2"/>
<feComposite in2="hardAlpha" operator="out"/>
<feColorMatrix type="matrix" values="0 0 0 0 0 0 0 0 0 0 0 0 0 0 0 0 0 0 0.25 0"/>
<feBlend mode="normal" in2="BackgroundImageFix" result="effect1_dropShadow_2_682"/>
<feBlend mode="normal" in="SourceGraphic" in2="effect1_dropShadow_2_682" result="shape"/>
</filter>
<clipPath id="clip0_2_682">
<rect width="28" height="28" fill="white"/>
</clipPath>
</defs>
</svg>
